<svg xmlns="http://www.w3.org/2000/svg" width="31" height="42" viewBox="0 0 31 42" fill="none">
<path d="M30.3571 16.2134C30.3912 20.3409 28.9354 23.915 26.3442 27.0392C24.8185 28.8775 23.2035 30.6392 21.6391 32.447C19.4747 34.9451 17.63 37.6529 16.3829 40.7427C16.1944 41.2083 15.8762 41.5041 15.3655 41.5096C14.8549 41.5151 14.5119 41.2427 14.3241 40.7747C12.9148 37.289 10.7326 34.3198 8.26557 31.529C6.61493 29.6625 4.94567 27.8007 3.44714 25.8105C1.09341 22.6801 0.0185949 19.0675 0.451625 15.1561C1.16248 8.72539 4.41796 4.054 10.5401 1.84392C15.4789 0.0603535 20.1995 0.91809 24.4041 4.09235C27.8963 6.72661 29.8131 10.3196 30.2834 14.6936C30.2903 14.7585 30.2942 14.8235 30.2973 14.8892C30.318 15.3316 30.3379 15.773 30.3571 16.2134Z" fill="#98CBCD"/>
<path d="M22.5206 25.3435H8.38485C7.52489 25.3435 6.82776 24.6463 6.82776 23.7864V22.6917C6.82776 21.8555 7.48896 21.165 8.32511 21.1634C12.1316 21.1561 15.1431 21.7135 17.4157 22.4606M22.5206 25.3435C21.8353 24.5479 20.167 23.3652 17.4157 22.4606M22.5206 25.3435H22.8542C23.7141 25.3435 24.4113 24.6466 24.4113 23.7867C24.4113 23.3632 24.4113 22.9114 24.4113 22.5054C24.4113 21.7477 23.8635 21.1023 23.1062 21.0746C22.5073 21.0527 21.7632 21.0688 21.008 21.1947C19.4984 21.4465 17.9441 22.2641 17.4157 22.4606" stroke="white" stroke-width="1.1847"/>
<path d="M11.1049 23.2029C11.8052 22.9168 13.451 22.6593 14.4315 23.9182" stroke="white" stroke-width="1.1847"/>
<path d="M17.7238 8.84568C14.8873 7.89638 11.8786 8.96809 10.3584 11.2717C9.88472 11.9895 10.3403 12.8894 11.1558 13.1623L20.3705 16.2462C21.186 16.5191 22.0915 16.0747 22.1453 15.2164C22.3179 12.4618 20.5603 9.79498 17.7238 8.84568Z" stroke="white" stroke-width="1.1847" stroke-linecap="round"/>
<line x1="18.2109" y1="8.50733" x2="13.3846" y2="22.9285" stroke="white" stroke-width="1.1847"/>
<line x1="18.3619" y1="8.05713" x2="18.0603" y2="8.95846" stroke="white" stroke-width="1.1847"/>
<path d="M12.1578 13.4979C12.2332 13.2725 13.2908 8.61509 17.4985 8.77043" stroke="white" stroke-width="1.1847"/>
<path d="M19.3684 15.9107C19.4438 15.6854 21.4027 11.3296 17.9491 8.92097" stroke="white" stroke-width="1.1847"/>
</svg>