<svg xmlns="http://www.w3.org/2000/svg" width="36" height="48" viewBox="0 0 36 48" fill="none">
<path d="M35.3635 18.0188C35.4038 22.8843 33.6876 27.0976 30.6331 30.7804C28.8346 32.9475 26.9309 35.0241 25.0867 37.1552C22.5353 40.0999 20.3608 43.2919 18.8907 46.9341C18.6684 47.4831 18.2934 47.8318 17.6914 47.8382C17.0895 47.8447 16.6851 47.5236 16.4637 46.972C14.8025 42.863 12.23 39.3628 9.32189 36.073C7.37611 33.8728 5.40837 31.678 3.64189 29.332C0.867301 25.6418 -0.3997 21.3834 0.110759 16.7725C0.948717 9.19193 4.78631 3.68527 12.0032 1.08C17.825 -1.02248 23.3897 -0.0113654 28.3461 3.73047C32.4627 6.83576 34.7223 11.0712 35.2766 16.2273C35.2849 16.3038 35.2894 16.3804 35.2931 16.4579C35.3175 16.9794 35.341 17.4998 35.3635 18.0188Z" fill="#EAE5DB"/>
<path d="M31 6H7V30H31V6Z" fill="#EAE5DB"/>
<path d="M6 16L15 9L24 16" stroke="#010400" stroke-linecap="round"/>
<path d="M8 15V27H22V15" stroke="#010400" stroke-linecap="round"/>
<path d="M11 27V21H18V27" stroke="#010400" stroke-linecap="round"/>
<path d="M22 19.9942L25.8419 17L31 21" stroke="#010400" stroke-linecap="round"/>
<path d="M22 20V27H29V20" stroke="#010400" stroke-linecap="round"/>
<path d="M24 27V24H27V27" stroke="#010400" stroke-linecap="round"/>
</svg>