<svg xmlns="http://www.w3.org/2000/svg" width="30" height="41" viewBox="0 0 30 41" fill="none">
<path d="M29.9994 15.2856C30.0336 19.4131 28.5777 22.9873 25.9865 26.1115C24.4608 27.9498 22.8459 29.7115 21.2814 31.5193C19.117 34.0174 17.2724 36.7252 16.0253 39.8149C15.8367 40.2806 15.5185 40.5764 15.0079 40.5819C14.4972 40.5874 14.1542 40.315 13.9664 39.847C12.5572 36.3613 10.3749 33.3921 7.9079 30.6013C6.25726 28.7348 4.588 26.8729 3.08947 24.8828C0.735743 21.7523 -0.339071 18.1398 0.0939588 14.2283C0.804811 7.79765 4.0603 3.12627 10.1825 0.916182C15.1212 -0.867381 19.8418 -0.00964379 24.0464 3.16461C27.5386 5.79887 29.4554 9.39182 29.9257 13.7658C29.9327 13.8308 29.9366 13.8957 29.9397 13.9615C29.9603 14.4039 29.9803 14.8453 29.9994 15.2856Z" fill="#BFD2E4"/>
<rect width="16.9663" height="16.9663" transform="translate(6.78662 5.93848)" fill="#BFD2E4"/>
<path d="M7.35205 17.1543C8.18548 16.4312 10.7018 15.2379 12.6305 17.1543C14.6419 19.1529 16.3505 18.3801 17.9089 17.1543C19.533 15.8767 20.7425 15.8526 23.1873 17.1543" stroke="#30332E" stroke-linecap="round"/>
<path d="M7.35205 20.8542C8.18548 20.3119 10.7018 19.417 12.6305 20.8542C14.6419 22.3532 16.3505 21.7736 17.9089 20.8542C19.533 19.8961 20.7425 19.878 23.1873 20.8542" stroke="#30332E" stroke-linecap="round"/>
<path fill-rule="evenodd" clip-rule="evenodd" d="M19.1631 7.22197C19.2012 7.1717 19.2448 7.12228 19.2917 7.07881C19.3735 7.00314 19.444 6.96501 19.4939 6.95148C19.5304 6.94157 19.5631 6.94112 19.6131 6.96773C19.6757 7.00103 19.79 7.0921 19.931 7.32706L20.7885 6.81257C20.5901 6.48199 20.358 6.23138 20.083 6.085C19.7955 5.93193 19.4995 5.91381 19.232 5.98637C18.7454 6.1184 18.4042 6.53096 18.2367 6.80869C18.19 6.88472 18.1631 6.97418 18.1631 7.06992V16.6842C18.1631 16.9603 18.3869 17.1842 18.6631 17.1842C18.9392 17.1842 19.1631 16.9603 19.1631 16.6842V7.22197Z" fill="#30332E"/>
<path fill-rule="evenodd" clip-rule="evenodd" d="M12.3765 7.22197C12.4146 7.1717 12.4582 7.12228 12.5051 7.07881C12.5869 7.00314 12.6574 6.96501 12.7072 6.95148C12.7438 6.94157 12.7765 6.94112 12.8265 6.96773C12.8891 7.00103 13.0034 7.0921 13.1443 7.32706L14.0018 6.81257C13.8035 6.48199 13.5714 6.23138 13.2964 6.085C13.0088 5.93193 12.7128 5.91381 12.4454 5.98637C11.9588 6.1184 11.6175 6.53096 11.45 6.8087C11.4034 6.88472 11.3765 6.97418 11.3765 7.06992V16.1186C11.3765 16.3948 11.6003 16.6186 11.8765 16.6186C12.1526 16.6186 12.3765 16.3948 12.3765 16.1186V7.22197Z" fill="#30332E"/>
<path d="M11.8765 13.291H18.663" stroke="#30332E" stroke-linecap="round"/>
<path d="M11.8765 9.89746H18.663" stroke="#30332E" stroke-linecap="round"/>
</svg>