<svg xmlns="http://www.w3.org/2000/svg" width="31" height="41" viewBox="0 0 31 41" fill="none">
<path d="M30.2047 15.4048C30.2389 19.5323 28.783 23.1064 26.1918 26.2306C24.6661 28.0689 23.0512 29.8306 21.4867 31.6384C19.3223 34.1365 17.4777 36.8443 16.2306 39.9341C16.042 40.3997 15.7238 40.6955 15.2132 40.701C14.7026 40.7065 14.3596 40.4341 14.1718 39.9661C12.7625 36.4804 10.5803 33.5112 8.11322 30.7204C6.46259 28.8539 4.79332 26.9921 3.29479 25.0019C0.941065 21.8715 -0.133749 18.259 0.299281 14.3475C1.01013 7.91679 4.26562 3.24541 10.3878 1.03532C15.3265 -0.74824 20.0472 0.109497 24.2517 3.28375C27.7439 5.91801 29.6607 9.51096 30.131 13.885C30.138 13.9499 30.1419 14.0149 30.145 14.0806C30.1657 14.523 30.1856 14.9644 30.2047 15.4048Z" fill="#D08D5B"/>
<path d="M23.9136 23.5912L8.32435 8.00195C6.38436 10.2191 6.82314 12.0436 7.63147 13.1984L14.2137 21.1662L15.9457 19.4341C17.6779 20.8198 21.3395 24.531 22.5279 25.3233C23.5672 26.0162 24.6065 24.6305 23.9136 23.5912Z" stroke="white" stroke-width="1.19181" stroke-linejoin="round"/>
<path d="M7.81805 24.3172C7.12519 25.3565 8.5109 26.3958 9.55019 25.7029L14.1821 21.1674L12.5316 19.0889C10.8496 20.9387 8.43859 23.3864 7.81805 24.3172Z" stroke="white" stroke-width="1.19181" stroke-linejoin="round"/>
<path d="M15.7685 15.146L15.4681 14.8819C14.6308 14.146 14.5625 12.865 15.317 12.0443C16.1293 11.1607 17.1923 10.0045 18.1958 8.9129C18.9257 8.119 20.1553 8.05284 20.9662 8.76378L22.9775 10.5273C23.8238 11.2693 23.8856 12.5657 23.1135 13.3847C22.0417 14.5216 20.9108 15.7213 20.0723 16.6107C19.345 17.3822 18.1414 17.445 17.3366 16.7549L17.215 16.6507" stroke="white" stroke-width="1.19181" stroke-linecap="round" stroke-linejoin="round"/>
<path d="M18.6642 14.938L22.5726 10.3784" stroke="white" stroke-width="1.19181" stroke-linecap="round"/>
<path d="M17.0357 13.6352L20.944 9.07534" stroke="white" stroke-width="1.19181" stroke-linecap="round"/>
</svg>