<svg xmlns="http://www.w3.org/2000/svg" width="30" height="41" viewBox="0 0 30 41" fill="none">
<path d="M29.9994 15.2856C30.0336 19.4131 28.5777 22.9873 25.9865 26.1115C24.4608 27.9498 22.8459 29.7115 21.2814 31.5193C19.117 34.0174 17.2724 36.7252 16.0253 39.8149C15.8367 40.2806 15.5185 40.5764 15.0079 40.5819C14.4972 40.5874 14.1542 40.315 13.9664 39.847C12.5572 36.3613 10.3749 33.3921 7.9079 30.6013C6.25726 28.7348 4.588 26.8729 3.08947 24.8828C0.735743 21.7523 -0.339071 18.1398 0.0939588 14.2283C0.804811 7.79765 4.0603 3.12627 10.1825 0.916182C15.1212 -0.867381 19.8418 -0.00964407 24.0464 3.16461C27.5386 5.79887 29.4554 9.39182 29.9257 13.7658C29.9327 13.8308 29.9366 13.8957 29.9397 13.9615C29.9604 14.4039 29.9803 14.8453 29.9994 15.2856Z" fill="#B3B699"/>
<path d="M7.2305 13.8003C7.27058 13.2793 7.70502 12.877 8.22756 12.877H14.5477C15.0703 12.877 15.5047 13.2793 15.5448 13.8003L16.1339 21.4584C16.1786 22.0392 15.7193 22.5351 15.1368 22.5351H7.63847C7.05596 22.5351 6.59674 22.0392 6.64142 21.4584L7.2305 13.8003Z" stroke="black"/>
<path d="M16.0767 21.1352L22.6756 21.2553C23.2653 21.266 23.7361 20.7667 23.6909 20.1787L22.9095 10.021C22.8694 9.49996 22.435 9.09766 21.9125 9.09766H13.4247C12.9172 9.09766 12.4901 9.4779 12.4314 9.98206L12.1108 12.7369" stroke="black"/>
<path d="M9.91797 14.1357V15.1855C9.91797 15.9972 10.576 16.6552 11.3877 16.6552V16.6552C12.1994 16.6552 12.8574 15.9972 12.8574 15.1855V14.1357" stroke="black"/>
<path d="M20.626 10.7773L20.626 8.67776C20.626 7.05436 19.31 5.73833 17.6866 5.73833V5.73833C16.0632 5.73833 14.7471 7.05436 14.7471 8.67776L14.7471 10.7773" stroke="black"/>
<path d="M16.0767 19.3623H22.5154" stroke="black"/>
</svg>