<svg xmlns="http://www.w3.org/2000/svg" width="31" height="41" viewBox="0 0 31 41" fill="none">
<path d="M30.3571 15.5503C30.3912 19.6778 28.9354 23.2519 26.3442 26.3761C24.8185 28.2145 23.2035 29.9761 21.6391 31.7839C19.4747 34.282 17.63 36.9898 16.3829 40.0796C16.1944 40.5452 15.8762 40.841 15.3655 40.8465C14.8549 40.852 14.5119 40.5797 14.3241 40.1117C12.9148 36.6259 10.7326 33.6567 8.26556 30.8659C6.61493 28.9994 4.94567 27.1376 3.44714 25.1474C1.09341 22.017 0.0185949 18.4045 0.451625 14.493C1.16248 8.0623 4.41796 3.39092 10.5401 1.18083C15.4789 -0.602732 20.1995 0.255005 24.4041 3.42926C27.8963 6.06352 29.8131 9.65647 30.2834 14.0305C30.2903 14.0954 30.2942 14.1604 30.2973 14.2261C30.318 14.6686 30.3379 15.1099 30.3571 15.5503Z" fill="#D6CBB7"/>
<path d="M21.6607 14.3702C21.8343 14.2051 21.8862 13.9567 21.7923 13.7409C21.6983 13.5252 21.477 13.3845 21.2316 13.3845L7.68044 13.3845C7.43497 13.3845 7.21367 13.5252 7.11973 13.7409C7.02579 13.9567 7.07772 14.2051 7.25129 14.3702L14.0269 20.8166C14.2639 21.0421 14.6481 21.0421 14.8852 20.8166L21.6607 14.3702Z" stroke="white" stroke-width="1.1847" stroke-linejoin="round"/>
<line x1="14.7291" y1="20.8867" x2="14.7291" y2="26.9644" stroke="white" stroke-width="1.1847"/>
<line x1="16.7385" y1="27.5562" x2="12.1739" y2="27.5562" stroke="white" stroke-width="1.1847" stroke-linecap="round"/>
<path d="M16.692 13.7394C16.692 12.475 17.7871 9.94629 20.5249 9.94629C23.2626 9.94629 24.3577 12.1138 24.3577 13.7394C24.3577 15.365 22.715 18.0744 18.8822 16.9906" stroke="white" stroke-width="1.1847"/>
</svg>