<svg xmlns="http://www.w3.org/2000/svg" width="30" height="41" viewBox="0 0 30 41" fill="none">
<path d="M29.9994 15.2856C30.0336 19.4131 28.5777 22.9873 25.9865 26.1115C24.4608 27.9498 22.8459 29.7115 21.2814 31.5193C19.117 34.0174 17.2724 36.7252 16.0253 39.8149C15.8367 40.2806 15.5185 40.5764 15.0079 40.5819C14.4972 40.5874 14.1542 40.315 13.9664 39.847C12.5572 36.3613 10.3749 33.3921 7.9079 30.6013C6.25726 28.7348 4.588 26.8729 3.08947 24.8828C0.735743 21.7523 -0.339071 18.1398 0.0939588 14.2283C0.804811 7.79765 4.0603 3.12627 10.1825 0.916182C15.1212 -0.867381 19.8418 -0.00964379 24.0464 3.16461C27.5386 5.79887 29.4554 9.39182 29.9257 13.7658C29.9327 13.8308 29.9366 13.8957 29.9397 13.9615C29.9604 14.4039 29.9803 14.8453 29.9994 15.2856Z" fill="#737142"/>
<path d="M15 25C19.9706 25 24 20.9706 24 16C24 11.0294 19.9706 7 15 7C10.0294 7 6 11.0294 6 16C6 20.9706 10.0294 25 15 25Z" stroke="white" stroke-linecap="round"/>
<path d="M11.0049 8C10.9329 9.73334 11.6311 13.76 15 16" stroke="white" stroke-linecap="round"/>
<path d="M8.00076 10.6708C8.20458 12.4131 9.68977 16.3182 14 18" stroke="white" stroke-linecap="round"/>
<path d="M6.43433 14.483C6.85203 15.941 8.66308 19.1889 12.5656 20.5169" stroke="white" stroke-linecap="round"/>
<path d="M12.0333 10.2415C13.4178 9.46412 17.1509 8.23388 21.0081 9.53173" stroke="white" stroke-linecap="round"/>
<path d="M12.9543 13.2186C14.858 12.0231 19.7085 10.609 23.8804 14.5165" stroke="white" stroke-linecap="round"/>
<path d="M23.8959 17.5848C22.8196 16.882 19.5466 15.5225 15.0657 15.7072" stroke="white" stroke-linecap="round"/>
<path d="M15 16C14.8428 17.2786 13.6227 20.4685 10 23" stroke="white" stroke-linecap="round"/>
<path d="M18.5619 16.3619C18.2437 18.3372 16.5736 22.7581 12.4381 24.6383" stroke="white" stroke-linecap="round"/>
<path d="M20.9892 16.9989C20.9368 18.5815 19.9794 22.3537 16.5683 24.7821" stroke="white" stroke-linecap="round"/>
</svg>