<svg xmlns="http://www.w3.org/2000/svg" width="169.262" height="61.396" viewBox="0 0 169.262 61.396">
 <defs>
  <style>
   .f14a0600-eb17-4c3f-9674-4835024f5107 {
    fill: #ffff;
   }

   .b51577d0-81db-4af2-9ac1-ed9e294a41ff {
    fill: #ffff;
   }

   .b6097b28-c303-4ccb-b883-88eaa85c5dcc {
    fill: #ffff;
   }

   .a5b39d02-ed8a-4ca6-857a-dfa7c674e48c {
    fill: #ffff;
   }
  </style>
 </defs>
 <g id="a9467369-3e03-4a0e-95ce-97f29213ce12" data-name="Layer 2">
  <g id="ac486c45-8741-42cf-824a-fbb989ecb20d" data-name="Isolation Mode">
   <path
    d="M80.807 19.016c-5.014 7.19-18.54 17.029-23.458 17.029-2.177 0-2.177-1.704-2.177-6.245 0-2.079 0-5.296-.378-6.05a18.65 18.65 0 00-5.718-3.993c-.499-.252-1.404.005-1.345.622.197 2.044.252 6.293.252 16.895 0 3.782.19 4.92 1.609 6.717 2.648 3.594 5.39 4.73 8.796 4.73a21.522 21.522 0 0012.297-4.352 51.15 51.15 0 008.89-7.377c0 3.213 0 7.19-2.175 10.783-3.407 5.391-9.14 5.946-14.248 5.946-5.652 0-9.237-.75-11.202-1.89a.493.493 0 00-.742.498c1.001 4.74 4.66 9.067 16.545 9.067 9.836 0 14.756-3.878 16.836-7.948 2.27-4.254 2.744-7.946 2.744-23.93 0-2.558 0-5.581-6.526-10.502"
    class="f14a0600-eb17-4c3f-9674-4835024f5107"></path>
   <path
    d="M16.816 19.21c-4.164 0-10.598 5.677-15.325 11.353a13.8 13.8 0 013.024-.38c7.569 0 11.165 1.892 27.346 14.855 1.197.943 3.518 2.906 4.684 3.767.895.662 1.316.654 1.736.445a29.823 29.823 0 005.732-4.487c.118-.123.287-.357.177-.571a192.945 192.945 0 00-13.086-14.67C21.262 19.495 18.991 19.21 16.816 19.21"
    class="b51577d0-81db-4af2-9ac1-ed9e294a41ff"></path>
   <path
    d="M7.63 35.21C4.9 34.93.568 35.436.027 40.71c-.394 3.86 3.692 7.613 10.185 8.278 6.498.668 7.47-4.182 7.589-5.312.559-5.465-6.309-8.073-10.17-8.468"
    class="b51577d0-81db-4af2-9ac1-ed9e294a41ff"></path>
   <path
    d="M141.852 19.21c-4.164 0-10.597 5.677-15.329 11.353a13.848 13.848 0 013.027-.38c7.57 0 11.168 1.892 27.347 14.855 1.196.943 3.52 2.906 4.685 3.767.893.662 1.315.654 1.735.445a29.816 29.816 0 005.732-4.487c.118-.123.288-.357.177-.571a192.79 192.79 0 00-13.088-14.67c-9.84-10.027-12.111-10.313-14.286-10.313"
    class="b6097b28-c303-4ccb-b883-88eaa85c5dcc"></path>
   <path
    d="M132.992 35.21c-2.73-.28-7.062.226-7.603 5.501-.395 3.86 3.691 7.613 10.186 8.278 6.497.668 7.47-4.182 7.588-5.312.558-5.465-6.31-8.073-10.171-8.468"
    class="b6097b28-c303-4ccb-b883-88eaa85c5dcc"></path>
   <path
    d="M106.836 36.142c-2.094.046-4.8-.824-4.841-1.77-.045-1.068.453-2.156.97-4.437.503-2.218 1.033-4.5 1.172-5.152 1.135-4.92 2.746-11.73 2.746-15.04 0-6.245-9.179-8.23-13.912-9.743a194.915 194.915 0 011.23 22.322c0 2.366-.661 14.19-.661 16.837 0 .609.013 1.19.069 1.75a5.145 5.145 0 001.727 3.64c2.368 1.989 10.695 4.826 14.857 4.826 3.029 0 4.733-1.324 6.625-4.826a113.3 113.3 0 003.974-11.459c-3.669 1.145-10.324 3.184-13.956 3.052"
    class="a5b39d02-ed8a-4ca6-857a-dfa7c674e48c"></path>
  </g>
 </g>
</svg>